<svg width="6" height="20" viewBox="0 0 6 20" fill="none" xmlns="http://www.w3.org/2000/svg">
<path fill-rule="evenodd" clip-rule="evenodd" d="M0 19L4 19L4 18L5 18L5 2L4 2L4 1L1.57361e-06 1L1.48619e-06 2L8.74228e-08 18L0 19Z" fill="#DDDDDD"/>
<rect opacity="0.5" x="2" y="17" width="1" height="1" fill="#808080"/>
<rect opacity="0.5" y="18" width="3" height="1" fill="#808080"/>
<rect x="6" y="18" width="1" height="16" transform="rotate(-180 6 18)" fill="#262626"/>
<rect x="5" y="19" width="1" height="1" transform="rotate(-180 5 19)" fill="#262626"/>
<rect x="4" y="20" width="4" height="1" transform="rotate(-180 4 20)" fill="#262626"/>
<rect x="5" y="2" width="1" height="1" transform="rotate(-180 5 2)" fill="#262626"/>
<rect x="4" y="1" width="4" height="1" transform="rotate(-180 4 1)" fill="#262626"/>
<rect x="5" y="18" width="1" height="16" transform="rotate(-180 5 18)" fill="#808080"/>
<rect opacity="0.5" x="4" y="19" width="1" height="18" transform="rotate(-180 4 19)" fill="#808080"/>
<rect opacity="0.5" y="1" width="4" height="1" fill="white"/>
</svg>
