<svg width="12" height="22" viewBox="0 0 12 22" fill="none" xmlns="http://www.w3.org/2000/svg">
<path fill-rule="evenodd" clip-rule="evenodd" d="M2 1H0V21H2H3H4H5H6H7H8H9H10H11V20H10V17H9V14H8V11H7V8H6V5H5V3H4V2H2V1Z" fill="#EEEEEE"/>
<rect x="11" y="20" width="1" height="1" fill="#262626"/>
<rect x="10" y="17" width="1" height="3" fill="#262626"/>
<rect x="9" y="14" width="1" height="3" fill="#262626"/>
<rect x="8" y="11" width="1" height="3" fill="#262626"/>
<rect x="7" y="8" width="1" height="3" fill="#262626"/>
<rect x="6" y="5" width="1" height="3" fill="#262626"/>
<rect x="5" y="3" width="1" height="2" fill="#262626"/>
<rect x="4" y="2" width="1" height="1" fill="#262626"/>
<rect x="2" y="1" width="2" height="1" fill="#262626"/>
<rect width="2" height="1" fill="#262626"/>
<rect y="21" width="12" height="1" fill="#EEEEEE"/>
</svg>
