<svg width="20" height="22" viewBox="0 0 20 22" fill="none" xmlns="http://www.w3.org/2000/svg">
<g filter="url(#filter0_d_542_13825)">
<path fill-rule="evenodd" clip-rule="evenodd" d="M14 1H16V2V21H14H13H12H11H10H9H8H7H6H5V20H6V17H7V14H8V11H9V8H10V5H11V3H12V2H14V1Z" fill="#EEEEEE"/>
<rect x="4" y="20" width="1" height="1" fill="#262626"/>
<rect x="5" y="17" width="1" height="3" fill="#262626"/>
<rect x="6" y="14" width="1" height="3" fill="#262626"/>
<rect x="7" y="11" width="1" height="3" fill="#262626"/>
<rect x="8" y="8" width="1" height="3" fill="#262626"/>
<rect x="9" y="5" width="1" height="3" fill="#262626"/>
<rect x="10" y="3" width="1" height="2" fill="#262626"/>
<rect x="11" y="2" width="1" height="1" fill="#262626"/>
<rect x="12" y="1" width="2" height="1" fill="#262626"/>
<rect x="14" width="2" height="1" fill="#262626"/>
<rect x="4" y="21" width="12" height="1" fill="#EEEEEE"/>
</g>
<defs>
<filter id="filter0_d_542_13825" x="0" y="0" width="20" height="30" filterUnits="userSpaceOnUse" color-interpolation-filters="sRGB">
<feFlood flood-opacity="0" result="BackgroundImageFix"/>
<feColorMatrix in="SourceAlpha" type="matrix" values="0 0 0 0 0 0 0 0 0 0 0 0 0 0 0 0 0 0 127 0" result="hardAlpha"/>
<feOffset dy="4"/>
<feGaussianBlur stdDeviation="2"/>
<feComposite in2="hardAlpha" operator="out"/>
<feColorMatrix type="matrix" values="0 0 0 0 0 0 0 0 0 0 0 0 0 0 0 0 0 0 0.25 0"/>
<feBlend mode="normal" in2="BackgroundImageFix" result="effect1_dropShadow_542_13825"/>
<feBlend mode="normal" in="SourceGraphic" in2="effect1_dropShadow_542_13825" result="shape"/>
</filter>
</defs>
</svg>
