<svg width="6" height="18" viewBox="0 0 6 18" fill="none" xmlns="http://www.w3.org/2000/svg">
<rect x="5" y="2" width="1" height="16" fill="#999999"/>
<rect opacity="0.5" x="5" width="1" height="2" fill="#999999"/>
<rect y="2" width="1" height="16" fill="white"/>
<rect opacity="0.5" width="1" height="2" fill="white"/>
<rect x="2" y="4" width="1" height="1" fill="#999999"/>
<rect x="2" y="7" width="1" height="1" fill="#999999"/>
<rect x="2" y="10" width="1" height="1" fill="#999999"/>
<rect x="2" y="13" width="1" height="1" fill="#999999"/>
<rect x="2" y="5" width="1" height="1" fill="#BBBBBB"/>
<rect x="2" y="8" width="1" height="1" fill="#BBBBBB"/>
<rect x="2" y="11" width="1" height="1" fill="#BBBBBB"/>
<rect x="2" y="14" width="1" height="1" fill="#BBBBBB"/>
<rect x="3" y="5" width="1" height="1" fill="white"/>
<rect x="3" y="8" width="1" height="1" fill="white"/>
<rect x="3" y="11" width="1" height="1" fill="white"/>
<rect x="3" y="14" width="1" height="1" fill="white"/>
<rect x="3" y="4" width="1" height="1" fill="#BBBBBB"/>
<rect x="3" y="7" width="1" height="1" fill="#BBBBBB"/>
<rect x="3" y="10" width="1" height="1" fill="#BBBBBB"/>
<rect x="3" y="13" width="1" height="1" fill="#BBBBBB"/>
</svg>
