<svg width="8" height="5" viewBox="0 0 8 5" fill="none" xmlns="http://www.w3.org/2000/svg">
<path fill-rule="evenodd" clip-rule="evenodd" d="M4.5 1.5H3.5V2H3V2.5H2.5V3H2V3.5H1.5V4H6.5V3.5H6V3H5.5V2.5H5V2H4.5V1.5Z" fill="#262626"/>
<rect opacity="0.8" x="3.5" y="1" width="1" height="0.5" fill="#262626"/>
<rect opacity="0.8" x="3" y="1.5" width="0.5" height="0.5" fill="#262626"/>
<rect opacity="0.8" x="4.5" y="1.5" width="0.5" height="0.5" fill="#262626"/>
<rect opacity="0.8" x="5" y="2" width="0.5" height="0.5" fill="#262626"/>
<rect opacity="0.8" x="2.5" y="2" width="0.5" height="0.5" fill="#262626"/>
<rect opacity="0.8" x="2" y="2.5" width="0.5" height="0.5" fill="#262626"/>
<rect opacity="0.8" x="5.5" y="2.5" width="0.5" height="0.5" fill="#262626"/>
<rect opacity="0.8" x="6" y="3" width="0.5" height="0.5" fill="#262626"/>
<rect opacity="0.8" x="1.5" y="3" width="0.5" height="0.5" fill="#262626"/>
<rect opacity="0.8" x="1" y="3.5" width="0.5" height="0.5" fill="#262626"/>
<rect opacity="0.8" x="6.5" y="3.5" width="0.5" height="0.5" fill="#262626"/>
<rect opacity="0.7" x="7" y="3.5" width="0.5" height="1" fill="#262626"/>
<rect opacity="0.7" x="0.5" y="3.5" width="0.5" height="1" fill="#262626"/>
<rect opacity="0.7" x="1" y="4" width="6" height="0.5" fill="#262626"/>
<rect opacity="0.7" x="1" y="3" width="0.5" height="0.5" fill="#262626"/>
<rect opacity="0.4" x="1" y="4.5" width="6" height="0.5" fill="#262626"/>
<rect opacity="0.2" x="3.5" width="1" height="0.5" fill="#262626"/>
<rect opacity="0.2" x="3" y="0.5" width="0.5" height="0.5" fill="#262626"/>
<rect opacity="0.2" x="4.5" y="0.5" width="0.5" height="0.5" fill="#262626"/>
<rect opacity="0.2" x="5" y="1" width="0.5" height="0.5" fill="#262626"/>
<rect opacity="0.2" x="2.5" y="1" width="0.5" height="0.5" fill="#262626"/>
<rect opacity="0.2" x="2" y="1.5" width="0.5" height="0.5" fill="#262626"/>
<rect opacity="0.2" x="5.5" y="1.5" width="0.5" height="0.5" fill="#262626"/>
<rect opacity="0.2" x="6" y="2" width="0.5" height="0.5" fill="#262626"/>
<rect opacity="0.2" x="1.5" y="2" width="0.5" height="0.5" fill="#262626"/>
<rect opacity="0.2" x="1" y="2.5" width="0.5" height="0.5" fill="#262626"/>
<rect opacity="0.2" x="6.5" y="2.5" width="0.5" height="0.5" fill="#262626"/>
<rect opacity="0.2" x="7" y="3" width="0.5" height="0.5" fill="#262626"/>
<rect opacity="0.2" x="7" y="4.5" width="0.5" height="0.5" fill="#262626"/>
<rect opacity="0.05" x="7.5" y="4.5" width="0.5" height="0.5" fill="#262626"/>
<rect opacity="0.05" y="4.5" width="0.5" height="0.5" fill="#262626"/>
<rect opacity="0.05" x="7.5" y="3" width="0.5" height="0.5" fill="#262626"/>
<rect opacity="0.05" y="3" width="0.5" height="0.5" fill="#262626"/>
<rect opacity="0.05" x="1" y="2" width="0.5" height="0.5" fill="#262626"/>
<rect opacity="0.05" x="2" y="1" width="0.5" height="0.5" fill="#262626"/>
<rect opacity="0.05" x="3" width="0.5" height="0.5" fill="#262626"/>
<rect opacity="0.05" x="4.5" width="0.5" height="0.5" fill="#262626"/>
<rect opacity="0.05" x="5.5" y="1" width="0.5" height="0.5" fill="#262626"/>
<rect opacity="0.05" x="6.5" y="2" width="0.5" height="0.5" fill="#262626"/>
<rect opacity="0.2" x="0.5" y="3" width="0.5" height="0.5" fill="#262626"/>
<rect opacity="0.2" x="0.5" y="4.5" width="0.5" height="0.5" fill="#262626"/>
<rect opacity="0.2" y="3.5" width="0.5" height="1" fill="#262626"/>
<rect opacity="0.2" x="7.5" y="3.5" width="0.5" height="1" fill="#262626"/>
<rect opacity="0.7" x="1.5" y="2.5" width="0.5" height="0.5" fill="#262626"/>
<rect opacity="0.7" x="2" y="2" width="0.5" height="0.5" fill="#262626"/>
<rect opacity="0.7" x="2.5" y="1.5" width="0.5" height="0.5" fill="#262626"/>
<rect opacity="0.7" x="3" y="1" width="0.5" height="0.5" fill="#262626"/>
<rect opacity="0.7" x="4.5" y="1" width="0.5" height="0.5" fill="#262626"/>
<rect opacity="0.7" x="5" y="1.5" width="0.5" height="0.5" fill="#262626"/>
<rect opacity="0.7" x="5.5" y="2" width="0.5" height="0.5" fill="#262626"/>
<rect opacity="0.7" x="6" y="2.5" width="0.5" height="0.5" fill="#262626"/>
<rect opacity="0.7" x="6.5" y="3" width="0.5" height="0.5" fill="#262626"/>
<rect opacity="0.7" x="3.5" y="0.5" width="1" height="0.5" fill="#262626"/>
</svg>
