<svg width="8" height="6" viewBox="0 0 8 6" fill="none" xmlns="http://www.w3.org/2000/svg">
<path fill-rule="evenodd" clip-rule="evenodd" d="M4.5 4L3.5 4L3.5 3.5L3 3.5L3 3L2.5 3L2.5 2.5L2 2.5L2 2L1.5 2L1.5 1.5L6.5 1.5L6.5 2L6 2L6 2.5L5.5 2.5L5.5 3L5 3L5 3.5L4.5 3.5L4.5 4Z" fill="#262626"/>
<rect opacity="0.8" width="1" height="0.5" transform="matrix(1 -1.74846e-07 -1.74846e-07 -1 3.5 4.5)" fill="#262626"/>
<rect opacity="0.8" width="0.5" height="0.5" transform="matrix(1 -1.74846e-07 -1.74846e-07 -1 3 4)" fill="#262626"/>
<rect opacity="0.8" width="0.5" height="0.5" transform="matrix(1 -1.74846e-07 -1.74846e-07 -1 4.5 4)" fill="#262626"/>
<rect opacity="0.8" width="0.5" height="0.5" transform="matrix(1 -1.74846e-07 -1.74846e-07 -1 5 3.5)" fill="#262626"/>
<rect opacity="0.8" width="0.5" height="0.5" transform="matrix(1 -1.74846e-07 -1.74846e-07 -1 2.5 3.5)" fill="#262626"/>
<rect opacity="0.8" width="0.5" height="0.5" transform="matrix(1 -1.74846e-07 -1.74846e-07 -1 2 3)" fill="#262626"/>
<rect opacity="0.8" width="0.5" height="0.5" transform="matrix(1 -1.74846e-07 -1.74846e-07 -1 5.5 3)" fill="#262626"/>
<rect opacity="0.8" width="0.5" height="0.5" transform="matrix(1 -1.74846e-07 -1.74846e-07 -1 6 2.5)" fill="#262626"/>
<rect opacity="0.8" width="0.5" height="0.5" transform="matrix(1 -1.74846e-07 -1.74846e-07 -1 1.5 2.5)" fill="#262626"/>
<rect opacity="0.8" width="0.5" height="0.5" transform="matrix(1 -1.74846e-07 -1.74846e-07 -1 1 2)" fill="#262626"/>
<rect opacity="0.8" width="0.5" height="0.5" transform="matrix(1 -1.74846e-07 -1.74846e-07 -1 6.5 2)" fill="#262626"/>
<rect opacity="0.7" width="0.5" height="1" transform="matrix(1 -1.74846e-07 -1.74846e-07 -1 7 2)" fill="#262626"/>
<rect opacity="0.7" width="0.5" height="1" transform="matrix(1 -1.74846e-07 -1.74846e-07 -1 0.5 2)" fill="#262626"/>
<rect opacity="0.7" width="6" height="0.5" transform="matrix(1 -1.74846e-07 -1.74846e-07 -1 1 1.5)" fill="#262626"/>
<rect opacity="0.7" width="0.5" height="0.5" transform="matrix(1 -1.74846e-07 -1.74846e-07 -1 1 2.5)" fill="#262626"/>
<rect opacity="0.4" width="6" height="0.5" transform="matrix(1 -1.74846e-07 -1.74846e-07 -1 1 1)" fill="#262626"/>
<rect opacity="0.2" width="0.5" height="0.5" transform="matrix(1 -1.74846e-07 -1.74846e-07 -1 3 5)" fill="#262626"/>
<rect opacity="0.2" width="0.5" height="0.5" transform="matrix(1 -1.74846e-07 -1.74846e-07 -1 4.5 5)" fill="#262626"/>
<rect opacity="0.2" width="0.5" height="0.5" transform="matrix(1 -1.74846e-07 -1.74846e-07 -1 5 4.5)" fill="#262626"/>
<rect opacity="0.2" width="0.5" height="0.5" transform="matrix(1 -1.74846e-07 -1.74846e-07 -1 2.5 4.5)" fill="#262626"/>
<rect opacity="0.2" width="0.5" height="0.5" transform="matrix(1 -1.74846e-07 -1.74846e-07 -1 2 4)" fill="#262626"/>
<rect opacity="0.2" width="0.5" height="0.5" transform="matrix(1 -1.74846e-07 -1.74846e-07 -1 5.5 4)" fill="#262626"/>
<rect opacity="0.2" width="0.5" height="0.5" transform="matrix(1 -1.74846e-07 -1.74846e-07 -1 6 3.5)" fill="#262626"/>
<rect opacity="0.2" width="0.5" height="0.5" transform="matrix(1 -1.74846e-07 -1.74846e-07 -1 1.5 3.5)" fill="#262626"/>
<rect opacity="0.2" width="0.5" height="0.5" transform="matrix(1 -1.74846e-07 -1.74846e-07 -1 1 3)" fill="#262626"/>
<rect opacity="0.2" width="0.5" height="0.5" transform="matrix(1 -1.74846e-07 -1.74846e-07 -1 6.5 3)" fill="#262626"/>
<rect opacity="0.2" width="0.5" height="0.5" transform="matrix(1 -1.74846e-07 -1.74846e-07 -1 7 2.5)" fill="#262626"/>
<rect opacity="0.2" width="0.5" height="0.5" transform="matrix(1 -1.74846e-07 -1.74846e-07 -1 7 1)" fill="#262626"/>
<rect opacity="0.05" width="0.5" height="0.5" transform="matrix(1 -1.74846e-07 -1.74846e-07 -1 7.5 1)" fill="#262626"/>
<rect opacity="0.05" width="0.5" height="0.5" transform="matrix(1 -1.74846e-07 -1.74846e-07 -1 0 1)" fill="#262626"/>
<rect opacity="0.05" width="0.5" height="0.5" transform="matrix(1 -1.74846e-07 -1.74846e-07 -1 7.5 2.5)" fill="#262626"/>
<rect opacity="0.05" width="0.5" height="0.5" transform="matrix(1 -1.74846e-07 -1.74846e-07 -1 0 2.5)" fill="#262626"/>
<rect opacity="0.05" width="0.5" height="0.5" transform="matrix(1 -1.74846e-07 -1.74846e-07 -1 1 3.5)" fill="#262626"/>
<rect opacity="0.05" width="0.5" height="0.5" transform="matrix(1 -1.74846e-07 -1.74846e-07 -1 2 4.5)" fill="#262626"/>
<rect opacity="0.05" width="0.5" height="0.5" transform="matrix(1 -1.74846e-07 -1.74846e-07 -1 5.5 4.5)" fill="#262626"/>
<rect opacity="0.05" width="0.5" height="0.5" transform="matrix(1 -1.74846e-07 -1.74846e-07 -1 6.5 3.5)" fill="#262626"/>
<rect opacity="0.2" width="0.5" height="0.5" transform="matrix(1 -1.74846e-07 -1.74846e-07 -1 0.5 2.5)" fill="#262626"/>
<rect opacity="0.2" width="0.5" height="0.5" transform="matrix(1 -1.74846e-07 -1.74846e-07 -1 0.5 1)" fill="#262626"/>
<rect opacity="0.2" width="0.5" height="1" transform="matrix(1 -1.74846e-07 -1.74846e-07 -1 0 2)" fill="#262626"/>
<rect opacity="0.2" width="0.5" height="1" transform="matrix(1 -1.74846e-07 -1.74846e-07 -1 7.5 2)" fill="#262626"/>
<rect opacity="0.7" width="0.5" height="0.5" transform="matrix(1 -1.74846e-07 -1.74846e-07 -1 1.5 3)" fill="#262626"/>
<rect opacity="0.7" width="0.5" height="0.5" transform="matrix(1 -1.74846e-07 -1.74846e-07 -1 2 3.5)" fill="#262626"/>
<rect opacity="0.7" width="0.5" height="0.5" transform="matrix(1 -1.74846e-07 -1.74846e-07 -1 2.5 4)" fill="#262626"/>
<rect opacity="0.7" width="0.5" height="0.5" transform="matrix(1 -1.74846e-07 -1.74846e-07 -1 3 4.5)" fill="#262626"/>
<rect opacity="0.7" width="0.5" height="0.5" transform="matrix(1 -1.74846e-07 -1.74846e-07 -1 4.5 4.5)" fill="#262626"/>
<rect opacity="0.7" width="0.5" height="0.5" transform="matrix(1 -1.74846e-07 -1.74846e-07 -1 5 4)" fill="#262626"/>
<rect opacity="0.7" width="0.5" height="0.5" transform="matrix(1 -1.74846e-07 -1.74846e-07 -1 5.5 3.5)" fill="#262626"/>
<rect opacity="0.7" width="0.5" height="0.5" transform="matrix(1 -1.74846e-07 -1.74846e-07 -1 6 3)" fill="#262626"/>
<rect opacity="0.7" width="0.5" height="0.5" transform="matrix(1 -1.74846e-07 -1.74846e-07 -1 6.5 2.5)" fill="#262626"/>
<rect opacity="0.7" width="1" height="0.5" transform="matrix(1 -1.74846e-07 -1.74846e-07 -1 3.5 5)" fill="#262626"/>
<rect opacity="0.2" width="1" height="0.5" transform="matrix(1 -1.74846e-07 -1.74846e-07 -1 3.5 5.5)" fill="#262626"/>
<rect opacity="0.05" width="0.5" height="0.5" transform="matrix(1 -1.74846e-07 -1.74846e-07 -1 3 5.5)" fill="#262626"/>
<rect opacity="0.05" width="0.5" height="0.5" transform="matrix(1 -1.74846e-07 -1.74846e-07 -1 4.5 5.5)" fill="#262626"/>
</svg>
