<svg width="9" height="8" viewBox="0 0 9 8" fill="none" xmlns="http://www.w3.org/2000/svg">
<rect opacity="0.3" x="2" y="4" width="6" height="1" fill="white"/>
<rect opacity="0.5" y="4" width="2" height="1" fill="white"/>
<rect opacity="0.3" x="2" y="2" width="6" height="1" fill="white"/>
<rect opacity="0.5" y="2" width="2" height="1" fill="white"/>
<rect opacity="0.3" x="2" width="6" height="1" fill="white"/>
<g style="mix-blend-mode:multiply" opacity="0.5">
<rect x="2" y="1" width="7" height="1" fill="#262626"/>
</g>
<g style="mix-blend-mode:multiply" opacity="0.2">
<rect x="1" y="1" width="1" height="1" fill="#262626"/>
</g>
<g style="mix-blend-mode:multiply" opacity="0.5">
<rect x="2" y="5" width="7" height="1" fill="#262626"/>
</g>
<g style="mix-blend-mode:multiply" opacity="0.2">
<rect x="1" y="5" width="1" height="1" fill="#262626"/>
</g>
<g style="mix-blend-mode:multiply" opacity="0.5">
<rect x="2" y="3" width="7" height="1" fill="#262626"/>
</g>
<g style="mix-blend-mode:multiply" opacity="0.2">
<rect x="1" y="3" width="1" height="1" fill="#262626"/>
</g>
<g style="mix-blend-mode:multiply" opacity="0.5">
<rect x="2" y="7" width="7" height="1" fill="#262626"/>
</g>
<g style="mix-blend-mode:multiply" opacity="0.2">
<rect x="1" y="7" width="1" height="1" fill="#262626"/>
</g>
<rect opacity="0.5" width="2" height="1" fill="white"/>
<rect opacity="0.3" x="2" y="6" width="6" height="1" fill="white"/>
<rect opacity="0.5" y="6" width="2" height="1" fill="white"/>
</svg>
